# xmcd
#
# Track frame offsets:
#	150
#	10291
#	20592
#	34805
#	44452
#	55888
#	67706
#	82590
#	95929
#	109153
#
# Disc length: 1595
#
# Revision: 2
# Processed by: cddbd v1.5.1PL0 Copyright (c) Steve Scherf et al.
# Submitted via: audiograbber 1.80
# Normalized: r1:DSETVAR1
#
DISCID=7806390a
DTITLE=Various Artist - Country Classics Vol 3
DYEAR=1900
DGENRE=
TTITLE0=Carl Perkins - Blue Suede Shoes
TTITLE1=Stonewall Jackson - Waterloo
TTITLE2=Bobb;y Helms - My Special Angel
TTITLE3=Faron Young - Alone With You
TTITLE4=George Jones - Your Tender Years
TTITLE5=Jerry Wallace - There She Goes
TTITLE6=Anne Murray - There Goes My Everything
TTITLE7=Frankie Lane - High Noon
TTITLE8=Ronnie Dove - One Kiss For Old Time's Sake
TTITLE9=Ace Cannon - Blue Eyes Crying In The Rain
EXTD=
EXTT0=
EXTT1=
EXTT2=
EXTT3=
EXTT4=
EXTT5=
EXTT6=
EXTT7=
EXTT8=
EXTT9=
PLAYORDER=
